<?xml version="1.0" standalone="no"?>
<!DOCTYPE svg PUBLIC "-//W3C//DTD SVG 20010904//EN"
 "http://www.w3.org/TR/2001/REC-SVG-20010904/DTD/svg10.dtd">
<svg version="1.0" xmlns="http://www.w3.org/2000/svg"
 width="400.000000pt" height="400.000000pt" viewBox="0 0 400.000000 400.000000"
 preserveAspectRatio="xMidYMid meet">
<metadata>
Created by potrace 1.11, written by Peter Selinger 2001-2013
</metadata>
<g transform="translate(0.000000,400.000000) scale(0.100000,-0.100000)"
fill="#000000" stroke="none">
<path d="M793 3109 c-70 -27 -146 -97 -180 -167 l-28 -57 0 -740 0 -740 28
-56 c32 -66 99 -132 165 -162 l47 -22 1451 -2 c1320 -3 1455 -2 1500 13 102
34 185 121 213 224 9 34 11 222 9 770 l-3 725 -26 50 c-35 65 -93 124 -155
155 l-49 25 -1460 2 c-1440 2 -1461 2 -1512 -18z m2972 -106 c47 -25 86 -64
111 -113 16 -33 18 -82 19 -725 1 -551 -2 -700 -12 -738 -17 -60 -65 -114
-123 -141 -44 -20 -61 -20 -1454 -20 -998 -1 -1422 2 -1453 10 -58 15 -112 60
-140 116 l-23 46 0 696 c-1 520 2 706 11 737 18 60 74 117 134 137 46 16 166
17 1470 17 l1420 -1 40 -21z"/>
<path d="M1416 2230 c-2 -3 -2 -113 -1 -245 1 -167 5 -247 14 -263 21 -39 55
-53 133 -55 l73 -2 3 50 3 50 -37 2 c-20 1 -42 7 -48 13 -7 7 -11 60 -11 143
l0 132 45 0 45 0 0 50 0 50 -45 0 c-57 1 -66 7 -74 48 -6 31 -8 33 -52 33 -25
0 -47 -3 -48 -6z"/>
<path d="M1880 2149 c-53 -10 -82 -24 -113 -55 -45 -44 -59 -89 -59 -179 0
-124 35 -185 128 -227 41 -18 66 -21 154 -20 150 2 144 0 148 60 l3 52 -38 -6
c-65 -10 -166 -8 -206 5 -32 11 -67 50 -67 76 0 3 72 5 160 5 88 0 161 3 161
8 7 41 3 126 -7 161 -29 99 -132 146 -264 120z m97 -98 c22 -2 53 -44 53 -72
l0 -27 -101 0 -101 0 7 26 c13 52 54 81 110 76 11 -1 25 -3 32 -3z"/>
<path d="M2248 2146 c-2 -6 -4 -117 -4 -246 l1 -235 63 0 62 -1 0 165 0 166
35 24 c44 30 121 39 150 18 18 -14 20 -28 22 -179 1 -90 2 -170 2 -178 1 -11
13 -15 54 -14 28 1 57 2 63 3 7 1 10 61 8 185 -1 161 -4 190 -21 223 -41 80
-155 101 -270 48 -31 -14 -57 -25 -59 -25 -2 0 -4 11 -4 25 0 14 -3 25 -7 26
-52 7 -92 5 -95 -5z"/>
<path d="M2980 2153 c-130 -20 -198 -92 -204 -216 -6 -123 32 -200 121 -243
43 -22 67 -26 140 -27 48 -1 100 2 116 6 25 7 27 11 27 58 l0 50 -37 -7 c-144
-27 -229 15 -240 119 -8 64 11 112 54 138 30 18 50 22 110 21 40 0 82 -4 93
-7 18 -6 20 -2 20 45 0 31 -5 52 -12 55 -18 7 -158 12 -188 8z"/>
<path d="M3395 2151 c-11 -5 -22 -7 -25 -6 -16 9 -88 -56 -108 -96 -46 -93
-35 -256 21 -317 75 -81 255 -95 358 -27 56 36 82 101 82 205 -1 120 -33 184
-113 225 -38 20 -183 30 -215 16z m132 -102 c66 -21 94 -147 52 -231 -39 -76
-163 -75 -201 2 -22 44 -24 140 -3 180 26 51 88 71 152 49z"/>
<path d="M1180 2126 c-39 -15 -104 -44 -236 -107 -49 -22 -104 -48 -121 -55
-18 -8 -33 -20 -34 -27 0 -6 -2 -20 -4 -29 -5 -28 34 -53 218 -137 203 -92
217 -97 246 -81 26 13 28 61 4 82 -10 8 -80 41 -155 74 -76 32 -134 62 -130
66 4 4 70 35 147 68 77 34 143 67 147 73 15 23 8 66 -11 77 -24 12 -28 12 -71
-4z"/>
<path d="M17 2125 c-22 -21 -22 -58 1 -77 9 -9 45 -28 79 -42 35 -14 87 -37
117 -51 30 -14 59 -25 64 -25 5 0 14 -6 20 -13 8 -10 -20 -26 -126 -71 -150
-65 -172 -79 -172 -110 0 -31 13 -46 43 -51 24 -5 59 9 346 142 97 44 113 67
86 114 -6 10 -55 37 -110 62 -55 25 -140 64 -189 87 -111 51 -138 57 -159 35z"/>
<path d="M231 1038 c-14 -40 -1 -57 73 -92 139 -67 198 -81 336 -81 109 1 135
4 205 28 97 33 184 77 198 98 5 9 7 28 3 42 -8 35 -38 35 -135 2 -195 -66
-361 -64 -562 6 -75 26 -107 25 -118 -3z"/>
</g>
</svg>
